<?xml version="1.0" standalone="no"?>
<!DOCTYPE svg PUBLIC "-//W3C//DTD SVG 1.1//EN" "http://www.w3.org/Graphics/SVG/1.1/DTD/svg11.dtd">
<svg id="" viewBox="0 0 48 234" style="background-color:#ffffff00" version="1.1"
	xmlns="http://www.w3.org/2000/svg" xmlns:xlink="http://www.w3.org/1999/xlink" xml:space="preserve"
	x="0px" y="0px" width="48px" height="234px"
>
	<g id="Share2">
		<path d="M 43 161.1977 C 43 161.6403 42.6404 162 42.1977 162 L 26.8023 162 C 26.3597 162 26 161.6403 26 161.1977 L 26 149.8023 C 26 149.3597 26.3597 149 26.8023 149 L 30.4388 149 L 31.4615 147 L 26.4068 147 C 25.0781 147 24 148.0781 24 149.4069 L 24 161.5931 C 24 162.9219 25.0781 164 26.4068 164 L 42.5932 164 C 43.9219 164 45 162.9219 45 161.5931 L 45 155.4504 L 43 157.0992 L 43 161.1977 ZM 40.3435 143.4761 C 40.128 143.5726 40 143.7997 40 144.0517 L 40 147.616 C 32.7648 147.616 28.8822 150.7246 28.8822 159.5502 C 28.8822 153.9337 32.6278 152.262 40 152.262 L 40 155.7596 C 40 156.012 40.128 156.2392 40.3435 156.3356 C 40.4156 156.3663 40.4563 156.3834 40.5311 156.3834 C 40.6807 156.3834 40.8276 156.3203 40.9376 156.1995 L 47.8317 150.3604 C 48.0561 150.1175 48.0561 149.7204 47.8317 149.4784 L 40.9376 143.6109 C 40.7727 143.4337 40.558 143.3788 40.3435 143.4761 Z" fill="#ffffff"/>
	</g>
	<g id="Share22">
		<path d="M 19 161.1977 C 19 161.6403 18.6404 162 18.1977 162 L 2.8023 162 C 2.3597 162 2 161.6403 2 161.1977 L 2 149.8023 C 2 149.3597 2.3597 149 2.8023 149 L 6.4388 149 L 7.4615 147 L 2.4068 147 C 1.0781 147 0 148.0781 0 149.4069 L 0 161.5931 C 0 162.9219 1.0781 164 2.4068 164 L 18.5932 164 C 19.9219 164 21 162.9219 21 161.5931 L 21 155.4504 L 19 157.0992 L 19 161.1977 ZM 16.3435 143.4761 C 16.128 143.5726 16 143.7997 16 144.0517 L 16 147.616 C 8.7648 147.616 4.8822 150.7246 4.8822 159.5502 C 4.8822 153.9337 8.6278 152.262 16 152.262 L 16 155.7596 C 16 156.012 16.128 156.2392 16.3435 156.3356 C 16.4156 156.3663 16.4563 156.3834 16.5311 156.3834 C 16.6807 156.3834 16.8276 156.3203 16.9376 156.1995 L 23.8317 150.3604 C 24.0561 150.1175 24.0561 149.7204 23.8317 149.4784 L 16.9376 143.6109 C 16.7727 143.4337 16.558 143.3788 16.3435 143.4761 Z" fill="#7c7c7c"/>
	</g>
	<path id="Indigo" d="M 20.5492 122.0869 C 20.728 122.0874 20.9037 122.1537 21.0347 122.2864 L 23.378 125.0067 C 23.6379 125.2701 23.8791 126 23.3832 126 L 22 126 L 22 135.5723 C 22 138.5417 20.9978 139.9371 19.9634 140 L 20.6012 140 L 20.6542 140 L 16.2192 140 C 13.9237 140 12.751 131.5549 11.0709 126.8044 L 10.9675 126.9979 L 10.0374 127.1161 C 10.0016 127.5442 10 127.9353 10 128.2172 L 10 135.9131 C 10 138.9783 8.9427 140 6.7948 140 L 4.1937 140 C 2.0422 140 1 139.0322 1 135.9131 L 1 127.0434 C 1 126.0217 2.076 125 3.1515 125 L 5 125 L 5 136.9343 C 5 138.2753 5.1954 138.3555 5.5079 139 L 6.0984 139 L 5.4724 138.9631 C 5.7931 138.3165 6 137.7279 6 136.3909 L 6 128.0584 C 6 124.9933 7.2465 124 8.1364 124 L 9.1629 124 L 9.2055 124.0005 L 9.2156 123.8938 C 9.1424 123.8763 13.2123 123.8674 13.2123 123.8674 C 15.381 123.8674 16.5082 133.0562 18.2443 137.8066 L 18.3348 137.5693 L 17.9511 137.4436 C 17.9823 137.1233 18 136.772 18 136.3909 L 18 126 L 17.2868 126 C 16.925 126 17.4033 125.4028 17.6788 125.1444 L 20.0491 122.2849 C 20.1905 122.1527 20.3714 122.0864 20.5492 122.0869 ZM 4.0165 118 C 5.682 118 7.3475 119.0606 7.3475 120.3687 C 7.3475 121.6768 6.0271 122.7369 3.3064 122.7369 C 1.1814 122.7369 1 123.7896 1 123.7896 L 1 120.3687 C 1 119.0606 2.3505 118 4.0165 118 Z" fill="#7c7c7c"/>
	<g>
		<path d="M 10 103 L 13.5455 115.7273 L 16.5 112.5455 L 20.6364 117 L 23 114.4545 L 18.8636 110 L 21.8182 106.8182 L 10 103 Z" fill="#7c7c7c"/>
	</g>
	<g id="Close">
		<path d="M 19.7899 88.3778 L 17.8801 90.2962 C 17.5307 90.6493 16.9595 90.6493 16.6083 90.2962 L 11.8365 85.5003 L 7.0643 90.2962 C 6.714 90.6493 6.1419 90.6493 5.7924 90.2944 L 3.8813 88.3778 C 3.532 88.0248 3.532 87.4526 3.8813 87.0977 L 8.6536 82.3 L 3.8827 77.5032 C 3.5333 77.1492 3.5333 76.5735 3.8827 76.2231 L 5.7924 74.3038 C 6.1419 73.9489 6.7149 73.9489 7.0643 74.3038 L 11.8356 79.1015 L 16.6078 74.3038 C 16.9595 73.9489 17.5307 73.9489 17.8788 74.3038 L 19.7886 76.2204 C 20.1393 76.5735 20.1393 77.1492 19.7899 77.5032 L 15.0186 82.3 L 19.7899 87.0977 C 20.1393 87.4526 20.1393 88.0248 19.7899 88.3778 Z" fill="#7c7c7c"/>
	</g>
	<g id="Pencil">
		<path d="M 9.0643 64.5125 L 4.9283 60.3577 C 4.7353 60.1639 4.4548 60.0853 4.1903 60.155 C 3.9258 60.2228 3.7169 60.4256 3.64 60.6882 L 1.0185 67.4768 C 0.9389 67.7492 1.014 68.0431 1.2136 68.244 C 1.3608 68.3914 1.7 68.4851 1.9774 68.4405 L 8.7345 65.8067 C 8.9967 65.729 9.199 65.5191 9.2666 65.2538 C 9.3342 64.9877 9.2572 64.7064 9.0643 64.5125 Z" fill="#7c7c7c"/>
		<g>
			<path d="M 15.5618 48.8739 L 20.4976 53.8316 L 9.8805 64.4956 L 4.9456 59.5378 L 15.5618 48.8739 L 15.5618 48.8739 ZM 15.5623 46.7429 C 15.2906 46.7429 15.0195 46.8465 14.8128 47.0537 L 3.1336 58.7849 C 2.7211 59.2002 2.7206 59.8772 3.1336 60.2907 L 9.131 66.3158 C 9.3377 66.5238 9.6093 66.6275 9.8809 66.6275 C 10.1526 66.6275 10.4237 66.5238 10.63 66.3158 L 22.3091 54.5854 C 22.7221 54.1684 22.7221 53.4922 22.3091 53.0787 L 16.3113 47.0537 C 16.105 46.8465 15.8339 46.7429 15.5623 46.7429 L 15.5623 46.7429 Z" fill="#7c7c7c"/>
		</g>
		<path d="M 6.0058 58.1151 L 4.3708 59.7575 L 9.7196 65.1306 L 11.3546 63.4881 L 6.0058 58.1151 Z" fill="#7c7c7c"/>
		<path d="M 8.7514 55.3571 L 7.7769 56.336 L 13.1257 61.709 L 14.1001 60.7301 L 8.7514 55.3571 Z" fill="#7c7c7c"/>
		<path d="M 21.8504 70 L 4.5522 70 C 4.0374 70 3.6204 70.4531 3.6204 69.936 C 3.6204 69.4189 4.0374 69 4.5522 69 L 21.8504 69 C 22.3652 69 22.7821 69.0189 22.7821 69.536 C 22.7821 70.0531 22.3652 70 21.8504 70 Z" fill="#7c7c7c"/>
	</g>
	<g id="Note">
		<path d="M 12.8608 44.974 C 12.4092 44.974 12.017 44.636 11.9584 44.1739 C 11.8953 43.6724 12.2482 43.2138 12.747 43.1503 C 14.9972 42.8634 16.3575 41.957 18.0033 37.5839 C 19.649 33.2107 20.9889 29.0146 21.5579 27.1829 L 9.8699 24.8426 L 6.3873 34.5409 C 6.2174 35.0174 5.6946 35.264 5.2216 35.0907 C 4.7486 34.919 4.5042 34.3943 4.6748 33.9187 L 8.4233 23.4802 C 8.5771 23.0529 9.019 22.8 9.4574 22.8939 L 22.9031 25.5855 C 23.1548 25.6355 23.3734 25.7902 23.5059 26.011 C 23.6376 26.2327 23.6712 26.499 23.5975 26.7458 C 23.5806 26.8013 21.9171 32.3588 19.7069 38.231 C 17.9908 42.7892 16.2296 44.552 12.9763 44.9669 C 12.9372 44.9713 12.8991 44.974 12.8608 44.974 Z" fill="#7c7c7c"/>
		<path d="M 12.8457 44.9552 C 11.7361 45.0553 10.4327 44.426 10.4327 44.426 L 2.8486 40.9647 C 2.8486 40.9647 -0.737 39.8356 0.3396 35.1443 L 10.6985 39.3529 C 10.6985 39.3529 10.2993 43.5105 13.5427 43.0529 C 14.1206 43.6447 13.8842 44.7693 12.8457 44.9552 Z" fill="#7c7c7c"/>
	</g>
	<path id="Refresh" d="M 7.1629 18.2229 L 13 21.4778 L 13 19.6597 C 18.0188 19.2482 21.9511 15.4828 21.9511 10.8996 C 21.9511 8.512 21.285 6.3499 19.5548 4.7642 L 17.098 6.7644 C 18.2898 7.8203 18.6219 9.2829 18.6219 10.8996 C 18.6219 13.8411 16.1767 16.273 13 16.669 L 13 14.968 L 7.1624 18.2229 L 7.1629 18.2229 ZM 18.2559 3.5771 L 12 0.3222 L 12 2.1408 C 6.9812 2.5518 3.0489 6.3159 3.0489 10.9004 C 3.0489 13.2884 3.7013 15.4518 5.4334 17.0375 L 7.8917 15.0369 C 6.6975 13.9814 6.3766 12.518 6.3766 10.9004 C 6.3766 7.958 8.8228 5.5235 12 5.1271 L 12 6.832 L 18.2559 3.5771 Z" fill="#7c7c7c"/>
	<path id="Indigo2" d="M 44.2204 122.0869 C 44.3993 122.0874 44.5749 122.1537 44.7059 122.2864 L 47.0493 125.0067 C 47.3092 125.2701 47.5504 126 47.0545 126 L 46 126 L 46 136.0471 C 46 139.0164 44.9978 140.4119 43.9634 140.4748 L 44.2724 139.998 L 44.3254 140 L 39.8904 140 C 37.5949 140 36.4222 131.5549 34.7422 126.8045 L 34.6387 126.9979 L 34.0374 127.1161 C 34.0016 127.5442 34 127.9353 34 128.2172 L 34 135.9131 C 34 138.9783 32.9427 140 30.7948 140 L 28.1937 140 C 26.0422 140 25 139.0322 25 135.9131 L 25 127.0434 C 25 126.0217 26.076 125 27.1515 125 L 29 125 L 29 137.0898 C 29 138.4308 29.1954 138.511 29.5079 139.1555 L 29.7696 139.1555 L 29.4724 139.1186 C 29.7931 138.4721 30 137.7279 30 136.3909 L 30 128.0584 C 30 124.9933 31.2465 124 32.1364 124 L 32.8341 124 L 32.8767 124.0005 L 32.9511 123.9134 C 32.8778 123.8959 36.9478 123.887 36.9478 123.887 C 39.1164 123.887 40.1794 133.0562 41.9156 137.8066 L 42.006 137.5693 L 41.9511 137.4436 C 41.9823 137.1233 42 136.772 42 136.3909 L 42 126 L 41.2868 126 C 40.925 126 41.0745 125.4028 41.35 125.1444 L 43.7204 122.2849 C 43.8618 122.1527 44.0427 122.0864 44.2204 122.0869 ZM 28.0165 118 C 29.682 118 31.0187 119.0606 31.0187 120.3687 C 31.0187 121.6768 30.0271 122.7369 27.3064 122.7369 C 25.1814 122.7369 25 123.7896 25 123.7896 L 25 120.3687 C 25 119.0606 26.3505 118 28.0165 118 Z" fill="#ffffff"/>
	<g id="Close2">
		<path d="M 43.4611 88.3778 L 41.5514 90.2962 C 41.2019 90.6493 40.6307 90.6493 40.2795 90.2962 L 35.5078 85.5003 L 30.7355 90.2962 C 30.3853 90.6493 29.8131 90.6493 29.4637 90.2944 L 27.5526 88.3778 C 27.2032 88.0248 27.2032 87.4526 27.5526 87.0977 L 32.3248 82.3 L 27.5539 77.5032 C 27.2045 77.1492 27.2045 76.5735 27.5539 76.2231 L 29.4637 74.3038 C 29.8131 73.9489 30.3861 73.9489 30.7355 74.3038 L 35.5069 79.1015 L 40.2791 74.3038 C 40.6307 73.9489 41.2019 73.9489 41.55 74.3038 L 43.4598 76.2204 C 43.8106 76.5735 43.8106 77.1492 43.4611 77.5032 L 38.6898 82.3 L 43.4611 87.0977 C 43.8106 87.4526 43.8106 88.0248 43.4611 88.3778 Z" fill="#ffffff"/>
	</g>
	<g id="Pencil2">
		<path d="M 32.7355 64.5125 L 28.5995 60.3577 C 28.4066 60.1639 28.126 60.0853 27.8615 60.155 C 27.597 60.2228 27.3881 60.4256 27.3112 60.6882 L 24.6897 67.4768 C 24.6101 67.7492 24.6852 68.0431 24.8848 68.244 C 25.032 68.3914 25.3712 68.4851 25.6486 68.4405 L 32.4057 65.8067 C 32.668 65.729 32.8702 65.5191 32.9378 65.2538 C 33.0054 64.9877 32.9285 64.7064 32.7355 64.5125 Z" fill="#ffffff"/>
		<g>
			<path d="M 39.233 48.8739 L 44.1688 53.8316 L 33.5517 64.4956 L 28.6168 59.5378 L 39.233 48.8739 L 39.233 48.8739 ZM 39.2335 46.7429 C 38.9619 46.7429 38.6907 46.8465 38.484 47.0537 L 26.8048 58.7849 C 26.3923 59.2002 26.3919 59.8772 26.8048 60.2907 L 32.8022 66.3158 C 33.0089 66.5238 33.2806 66.6275 33.5522 66.6275 C 33.8238 66.6275 34.095 66.5238 34.3012 66.3158 L 45.9804 54.5854 C 46.3934 54.1684 46.3934 53.4922 45.9804 53.0787 L 39.9825 47.0537 C 39.7763 46.8465 39.5051 46.7429 39.2335 46.7429 L 39.2335 46.7429 Z" fill="#ffffff"/>
		</g>
		<path d="M 29.6771 58.1151 L 28.042 59.7575 L 33.3908 65.1306 L 35.0258 63.4881 L 29.6771 58.1151 Z" fill="#ffffff"/>
		<path d="M 32.4226 55.3571 L 31.4481 56.336 L 36.7969 61.709 L 37.7714 60.7301 L 32.4226 55.3571 Z" fill="#ffffff"/>
		<path d="M 45.5216 70 L 28.2234 70 C 27.7086 70 27.2916 70.4531 27.2916 69.936 C 27.2916 69.4189 27.7086 69 28.2234 69 L 45.5216 69 C 46.0364 69 46.4534 69.0189 46.4534 69.536 C 46.4534 70.0531 46.0364 70 45.5216 70 Z" fill="#ffffff"/>
	</g>
	<g id="Note2">
		<path d="M 36.532 44.974 C 36.0804 44.974 35.6882 44.636 35.6296 44.1739 C 35.5665 43.6724 35.9194 43.2138 36.4182 43.1503 C 38.6685 42.8634 40.0288 41.957 41.6745 37.5839 C 43.3203 33.2107 44.6601 29.0146 45.2292 27.1829 L 33.5411 24.8426 L 30.0585 34.5409 C 29.8886 35.0174 29.3659 35.264 28.8929 35.0907 C 28.4199 34.919 28.1754 34.3943 28.3461 33.9187 L 32.0946 23.4802 C 32.2483 23.0529 32.6903 22.8 33.1286 22.8939 L 46.5743 25.5855 C 46.826 25.6355 47.0447 25.7902 47.1772 26.011 C 47.3088 26.2327 47.3425 26.499 47.2688 26.7458 C 47.2519 26.8013 45.5883 32.3588 43.3781 38.231 C 41.6621 42.7892 39.9008 44.552 36.6475 44.9669 C 36.6084 44.9713 36.5703 44.974 36.532 44.974 Z" fill="#ffffff"/>
		<path d="M 36.5169 44.9552 C 35.4073 45.0553 34.1039 44.426 34.1039 44.426 L 26.5199 40.9647 C 26.5199 40.9647 22.9342 39.8356 24.0108 35.1443 L 34.3697 39.3529 C 34.3697 39.3529 33.9705 43.5105 37.2139 43.0529 C 37.7918 43.6447 37.5554 44.7693 36.5169 44.9552 Z" fill="#ffffff"/>
	</g>
	<path id="Refresh2" d="M 31.1629 18.2229 L 37 21.4778 L 37 19.6597 C 42.0188 19.2482 45.9511 15.4828 45.9511 10.8996 C 45.9511 8.512 44.9563 6.3499 43.2261 4.7642 L 40.7692 6.7644 C 41.961 7.8203 42.6219 9.2829 42.6219 10.8996 C 42.6219 13.8411 40.1767 16.273 37 16.669 L 37 14.968 L 31.1624 18.2229 L 31.1629 18.2229 ZM 42.5846 3.5771 L 36 0.3222 L 36 2.1408 C 30.9812 2.5518 27.0489 6.3159 27.0489 10.9004 C 27.0489 13.2884 27.3725 15.4518 29.1046 17.0375 L 31.5629 15.0369 C 30.3687 13.9814 30.3766 12.518 30.3766 10.9004 C 30.3766 7.958 32.8228 5.5235 36 5.1271 L 36 6.832 L 42.5846 3.5771 Z" fill="#ffffff"/>
	<g id="Toggler">
		<rect y="168" x="1.315" width="21.0411" height="3" fill="#7c7c7c" rx="1" ry="1"/>
		<rect y="176" x="1.315" width="21.0411" height="3" fill="#7c7c7c" rx="1" ry="1"/>
		<rect y="184" x="1.315" width="21.0411" height="3" fill="#7c7c7c" rx="1" ry="1"/>
	</g>
	<g id="Toggler2">
		<rect y="168" x="24.9862" width="21.0411" height="3" fill="#ffffff" rx="1" ry="1"/>
		<rect y="176" x="24.9862" width="21.0411" height="3" fill="#ffffff" rx="1" ry="1"/>
		<rect y="184" x="24.9862" width="21.0411" height="3" fill="#ffffff" rx="1" ry="1"/>
	</g>
	<path d="M 19.8176 200.0141 C 19.8176 196.0408 16.3125 191.5 10.7627 191.5 C 5.7972 191.5 2 195.1894 2 200.0141 C 2 203.9873 5.213 208.8119 10.7627 208.8119 C 12.4567 208.8119 14.3007 208.2281 15.8802 207.1602 L 20.3477 211.5 L 22 209.8946 L 17.6269 205.6447 C 18.943 204.1865 19.8176 202.2757 19.8176 200.0141 ZM 18.065 200.0141 C 18.065 203.9873 14.5599 207.1091 10.7627 207.1091 C 6.0893 207.1091 3.7525 203.4197 3.7525 200.0141 C 3.7525 196.0408 6.6735 193.2028 10.7627 193.2028 C 14.852 193.2028 18.065 196.0408 18.065 200.0141 Z" fill="#7c7c7c"/>
	<path d="M 43.3176 200.0141 C 43.3176 196.0408 39.8125 191.5 34.2627 191.5 C 29.2972 191.5 25.5 195.1894 25.5 200.0141 C 25.5 203.9873 28.713 208.8119 34.2627 208.8119 C 35.9567 208.8119 37.8008 208.2281 39.3802 207.1602 L 43.8477 211.5 L 45.5 209.8946 L 41.1269 205.6447 C 42.443 204.1865 43.3176 202.2757 43.3176 200.0141 ZM 41.565 200.0141 C 41.565 203.9873 38.0599 207.1091 34.2627 207.1091 C 29.5893 207.1091 27.2525 203.4197 27.2525 200.0141 C 27.2525 196.0408 30.1735 193.2028 34.2627 193.2028 C 38.352 193.2028 41.565 196.0408 41.565 200.0141 Z" fill="#ffffff"/>
	<rect y="94" x="12" width="1" height="6" fill="#7c7c7c"/>
	<rect y="106" x="0" width="6" height="1" fill="#7c7c7c"/>
	<path d="M 4.6005 97.8934 L 8.8431 102.136 L 8.136 102.8431 L 3.8934 98.6005 L 4.6005 97.8934 Z" fill="#7c7c7c"/>
	<path d="M 20.136 97.8934 L 15.8934 102.136 L 16.6005 102.8431 L 20.8431 98.6005 L 20.136 97.8934 Z" fill="#7c7c7c"/>
	<path d="M 4.6005 114.8431 L 8.8431 110.6005 L 8.136 109.8934 L 3.8934 114.136 L 4.6005 114.8431 Z" fill="#7c7c7c"/>
	<path d="M 34 103 L 37.5455 115.7273 L 40.5 112.5455 L 44.6364 117 L 47 114.4545 L 42.8636 110 L 45.8182 106.8182 L 34 103 Z" fill="#ffffff"/>
	<rect y="94" x="36" width="1" height="6" fill="#ffffff"/>
	<rect y="106" x="24" width="6" height="1" fill="#ffffff"/>
	<path d="M 28.6005 97.8934 L 32.8431 102.136 L 32.136 102.8431 L 27.8934 98.6005 L 28.6005 97.8934 Z" fill="#ffffff"/>
	<path d="M 44.136 97.8934 L 39.8934 102.136 L 40.6005 102.8431 L 44.8431 98.6005 L 44.136 97.8934 Z" fill="#ffffff"/>
	<path d="M 28.6005 114.8431 L 32.8431 110.6005 L 32.136 109.8934 L 27.8934 114.136 L 28.6005 114.8431 Z" fill="#ffffff"/>
	<path d="M 11 217.1576 L 1 227 L 4 227 L 4 234 L 9 234 L 9 229 L 13 229 L 13 234 L 18 234 L 18 227 L 21 227 L 18 224.05 L 18 217 L 16 217 L 16 222.08 L 11 217.1576 Z" fill="#7c7c7c"/>
	<path d="M 35 217.1576 L 25 227 L 28 227 L 28 234 L 33 234 L 33 229 L 37 229 L 37 234 L 42 234 L 42 227 L 45 227 L 42 224.05 L 42 217 L 40 217 L 40 222.08 L 35 217.1576 Z" fill="#ffffff"/>
</svg>