<svg xmlns="http://www.w3.org/2000/svg" width="802" height="381"><g><linearGradient id="a" gradientUnits="userSpaceOnUse" x1="56.88" y1="52.88" x2="852.88" y2="52.88" gradientTransform="matrix(1 0 0 -1 -50.88 240.88)"><stop offset="0" stop-color="#333"/><stop offset=".994" stop-color="#333"/></linearGradient><path fill="url(#a)" d="M66 .5h676c33.137 0 60 26.863 60 60v255c0 33.137-26.863 60-60 60h-676c-33.137 0-60-26.863-60-60v-255c0-33.137 26.863-60 60-60z"/><linearGradient id="b" gradientUnits="userSpaceOnUse" x1="425.406" y1="64.366" x2="1304.406" y2="-305.634" gradientTransform="matrix(1 0 0 -1 -50.88 240.88)"><stop offset="0" stop-color="#333"/><stop offset=".989" stop-color="#666"/></linearGradient><path fill="url(#b)" stroke="#5F6161" stroke-width="2" d="M63 3.5h680c30.376 0 55 24.625 55 55v260c0 30.375-24.624 55-55 55h-680c-30.375 0-55-24.625-55-55v-260c0-30.375 24.625-55 55-55z"/><g opacity=".302"><path fill="#999" d="M76.765 156.5c3.167 0 5.735 3.134 5.735 7v49c0 3.866-2.568 7-5.735 7-3.167 0-5.735-3.134-5.735-7v-49c-.001-3.866 2.567-7 5.735-7z"/><path d="M75.235 156.5c3.167 0 5.735 3.134 5.735 7v49c0 3.866-2.568 7-5.735 7-3.167 0-5.735-3.134-5.735-7v-49c0-3.866 2.568-7 5.735-7z"/></g><linearGradient id="c" gradientUnits="userSpaceOnUse" x1="121.144" y1="52.88" x2="132.806" y2="52.88" gradientTransform="matrix(1 0 0 -1 -50.88 240.88)"><stop offset="0" stop-color="#333"/><stop offset=".222" stop-color="#666"/><stop offset=".517" stop-color="#666"/><stop offset=".989" stop-color="#666"/></linearGradient><path fill="url(#c)" d="M76 156.5c3.167 0 5.735 3.134 5.735 7v49c0 3.866-2.568 7-5.735 7-3.167 0-5.735-3.134-5.735-7v-49c0-3.866 2.568-7 5.735-7z"/><linearGradient id="d" gradientUnits="userSpaceOnUse" x1="121.144" y1="52.88" x2="132.615" y2="52.88" gradientTransform="matrix(1 0 0 -1 -50.88 240.88)"><stop offset="0" stop-color="#1E1E1E"/><stop offset=".344" stop-color="#303030"/><stop offset=".989" stop-color="#303030"/></linearGradient><path fill="url(#d)" d="M76 156.5c3.167 0 5.735 3.134 5.735 7v49c0 3.866-2.568 7-5.735 7-3.167 0-5.735-3.134-5.735-7v-49c0-3.866 2.568-7 5.735-7z"/><g opacity=".502"><path fill="#999" d="M46.288 194.943c-4.028 0-7.294-3.265-7.294-7.293 0-4.028 3.266-7.294 7.294-7.294s7.294 3.266 7.294 7.294c0 4.029-3.266 7.293-7.294 7.293z"/><path d="M44.288 194.943c-4.028 0-7.294-3.265-7.294-7.293 0-4.028 3.266-7.294 7.294-7.294s7.294 3.266 7.294 7.294c0 4.029-3.266 7.293-7.294 7.293z"/></g><linearGradient id="e" gradientUnits="userSpaceOnUse" x1="88.874" y1="53.23" x2="103.462" y2="53.23" gradientTransform="matrix(1 0 0 -1 -50.88 240.88)"><stop offset="0" stop-color="#1E1E1E"/><stop offset=".344" stop-color="#303030"/><stop offset=".989" stop-color="#303030"/></linearGradient><path fill="url(#e)" d="M45.288 194.943c-4.028 0-7.294-3.265-7.294-7.293 0-4.028 3.266-7.294 7.294-7.294s7.294 3.266 7.294 7.294c0 4.029-3.266 7.293-7.294 7.293z"/><linearGradient id="f" gradientUnits="userSpaceOnUse" x1="764.201" y1="81.084" x2="843.441" y2="10.227" gradientTransform="matrix(1 0 0 -1 -50.88 240.88)"><stop offset="0" stop-color="#333"/><stop offset=".989" stop-color="#666"/></linearGradient><path fill="url(#f)" stroke="#5F6161" stroke-width="2" d="M744.47 223.078c-19.566 0-35.428-15.861-35.428-35.428 0-19.566 15.861-35.428 35.428-35.428 19.567 0 35.428 15.862 35.428 35.428-.001 19.567-15.861 35.428-35.428 35.428z"/><path stroke="#666" stroke-width="2" d="M732 195.29v-14.58c0-2.877 2.333-5.21 5.21-5.21h14.58c2.877 0 5.21 2.333 5.21 5.21v14.58c0 2.878-2.333 5.21-5.21 5.21h-14.58c-2.877 0-5.21-2.332-5.21-5.21z" fill="none"/><rect x="121.5" y="28" opacity=".502" fill="#333" stroke="#5F5F5F" enable-background="new" width="569" height="321"/><path fill="#666" d="M114.5 377.5v-2h36v2c0 1.656-1.343 3-3 3h-30c-1.657 0-3-1.344-3-3z"/><path fill="#666" d="M189.5 377.5v-2h29v2c0 1.656-1.343 3-3 3h-23c-1.657 0-3-1.344-3-3z"/><path fill="#666" d="M256.5 377.5v-2h29v2c0 1.656-1.343 3-3 3h-23c-1.657 0-3-1.344-3-3z"/><path fill="#666" d="M3.5 62.5h2v61h-2c-1.657 0-3-1.343-3-3v-55c0-1.657 1.343-3 3-3z"/></g><linearGradient id="g" gradientUnits="userSpaceOnUse" x1="552.302" y1="65.965" x2="1627.468" y2="-45.205" gradientTransform="matrix(1 0 0 -1 -50.88 240.88)"><stop offset="0" stop-color="#fff"/><stop offset=".983" stop-color="#fff" stop-opacity="0"/></linearGradient><path opacity=".102" fill="url(#g)" enable-background="new" d="M802 312.98v-246.47c0-36.181-29.368-65.51-65.598-65.51h-336.402c0 144.39 53.226 272.141 120.945 374.5h218.534c34.53 0 62.521-27.99 62.521-62.52z"/><g><path d="M122.086 28.656h567.927v22h-567.927v-22z"/><path opacity=".2" fill="#fff" enable-background="new" d="M681 41v-3h2v3h-2zm0-8h-19v13h19v-3h4v-7h-4v-3zm-2 2v9h-15v-9h15zm-14 1v7h5v-7h-5z"/><path fill="#fff" d="M130 41v4h2v-4h-2zm4-1v5h2v-5h-2zm4-2v7h2v-7h-2zm4-1v8h2v-8h-2zm4-3v11h2v-11h-2z" opacity=".2"/></g></svg>