<svg xmlns="http://www.w3.org/2000/svg" width="380" height="802"><linearGradient id="a" gradientUnits="userSpaceOnUse" x1="243.38" y1="656.38" x2="243.38" y2="-139.62" gradientTransform="matrix(1 0 0 -1 -50.88 661.88)"><stop offset="0" stop-color="#333"/><stop offset=".994" stop-color="#333"/></linearGradient><path fill="url(#a)" d="M65 5.5h255c33.137 0 60 26.863 60 60v676c0 33.137-26.863 60-60 60h-255c-33.137 0-60-26.863-60-60v-676c0-33.137 26.863-60 60-60z"/><linearGradient id="b" gradientUnits="userSpaceOnUse" x1="254.865" y1="287.853" x2="-115.135" y2="-591.146" gradientTransform="matrix(1 0 0 -1 -50.88 661.88)"><stop offset="0" stop-color="#333"/><stop offset=".989" stop-color="#666"/></linearGradient><path fill="url(#b)" stroke="#5F6161" stroke-width="2" d="M62 7.5h260c30.376 0 55 24.625 55 55v680c0 30.376-24.624 55-55 55h-260c-30.375 0-55-24.624-55-55v-680c0-30.375 24.625-55 55-55z"/><g opacity=".302"><path fill="#999" d="M168 70.529h49c3.866 0 7 2.568 7 5.735 0 3.167-3.134 5.735-7 5.735h-49c-3.866 0-7-2.568-7-5.735 0-3.167 3.134-5.735 7-5.735z"/><path d="M168 69h49c3.866 0 7 2.568 7 5.735 0 3.168-3.134 5.736-7 5.736h-49c-3.866 0-7-2.568-7-5.736 0-3.167 3.134-5.735 7-5.735z"/></g><linearGradient id="c" gradientUnits="userSpaceOnUse" x1="243.38" y1="592.115" x2="243.38" y2="580.454" gradientTransform="matrix(1 0 0 -1 -50.88 661.88)"><stop offset="0" stop-color="#333"/><stop offset=".222" stop-color="#666"/><stop offset=".517" stop-color="#666"/><stop offset=".989" stop-color="#666"/></linearGradient><path fill="url(#c)" d="M168 69.765h49c3.866 0 7 2.568 7 5.735 0 3.167-3.134 5.735-7 5.735h-49c-3.866 0-7-2.568-7-5.735 0-3.167 3.134-5.735 7-5.735z"/><linearGradient id="d" gradientUnits="userSpaceOnUse" x1="243.38" y1="592.115" x2="243.38" y2="580.644" gradientTransform="matrix(1 0 0 -1 -50.88 661.88)"><stop offset="0" stop-color="#1E1E1E"/><stop offset=".344" stop-color="#303030"/><stop offset=".989" stop-color="#303030"/></linearGradient><path fill="url(#d)" d="M168 69.765h49c3.866 0 7 2.568 7 5.735 0 3.167-3.134 5.735-7 5.735h-49c-3.866 0-7-2.568-7-5.735 0-3.167 3.134-5.735 7-5.735z"/><g opacity=".502"><path fill="#999" d="M185.556 45.788c0-4.028 3.265-7.294 7.293-7.294 4.028 0 7.295 3.266 7.295 7.294s-3.267 7.294-7.295 7.294c-4.028 0-7.293-3.266-7.293-7.294z"/><path d="M185.556 43.788c0-4.028 3.265-7.294 7.293-7.294 4.028 0 7.295 3.266 7.295 7.294s-3.267 7.294-7.295 7.294c-4.028 0-7.293-3.266-7.293-7.294z"/></g><linearGradient id="e" gradientUnits="userSpaceOnUse" x1="243.731" y1="624.386" x2="243.731" y2="609.798" gradientTransform="matrix(1 0 0 -1 -50.88 661.88)"><stop offset="0" stop-color="#1E1E1E"/><stop offset=".344" stop-color="#303030"/><stop offset=".989" stop-color="#303030"/></linearGradient><path fill="url(#e)" d="M185.556 44.788c0-4.028 3.265-7.294 7.293-7.294 4.028 0 7.295 3.266 7.295 7.294s-3.267 7.294-7.295 7.294c-4.028 0-7.293-3.266-7.293-7.294z"/><linearGradient id="f" gradientUnits="userSpaceOnUse" x1="271.583" y1="-50.94" x2="200.727" y2="-130.18" gradientTransform="matrix(1 0 0 -1 -50.88 661.88)"><stop offset="0" stop-color="#333"/><stop offset=".989" stop-color="#666"/></linearGradient><path fill="url(#f)" stroke="#5F6161" stroke-width="2" d="M157.422 743.97c0-19.566 15.861-35.428 35.428-35.428 19.567 0 35.428 15.861 35.428 35.428 0 19.567-15.861 35.428-35.428 35.428s-35.428-15.861-35.428-35.428z"/><path stroke="#666" stroke-width="2" d="M185.21 731.5h14.58c2.877 0 5.21 2.333 5.21 5.21v14.58c0 2.878-2.333 5.21-5.21 5.21h-14.58c-2.877 0-5.21-2.332-5.21-5.21v-14.58c0-2.877 2.333-5.21 5.21-5.21z" fill="none"/><rect x="31.5" y="121" opacity=".502" fill="#333" stroke="#5F5F5F" enable-background="new" width="321" height="569"/><path fill="#666" d="M3 114h2v36h-2c-1.657 0-3-1.343-3-3v-30c0-1.657 1.343-3 3-3z"/><path fill="#666" d="M3 189h2v29h-2c-1.657 0-3-1.343-3-3v-23c0-1.657 1.343-3 3-3z"/><path fill="#666" d="M3 256h2v29h-2c-1.657 0-3-1.343-3-3v-23c0-1.657 1.343-3 3-3z"/><path fill="#666" d="M318 3v2h-61v-2c0-1.657 1.343-3 3-3h55c1.657 0 3 1.343 3 3z"/><linearGradient id="g" gradientUnits="userSpaceOnUse" x1="327.484" y1="389.447" x2="1266.817" y2="224.542" gradientTransform="matrix(1 0 0 -1 -50.88 661.88)"><stop offset="0" stop-color="#fff"/><stop offset=".983" stop-color="#fff" stop-opacity="0"/></linearGradient><path opacity=".102" fill="url(#g)" enable-background="new" d="M174.31 7.5h145.38c31.652 0 57.31 25.658 57.31 57.31v495.38c0 31.652-202.69-205.554-202.69-552.69z"/><rect x="32.013" y="121.571" width="320" height="22"/><path opacity=".2" fill="#fff" enable-background="new" d="M343 134v-3h2v3h-2zm0-8h-19v13h19v-3h4v-7h-4v-3zm-2 2v9h-15v-9h15zm-14 1v7h5v-7h-5z"/><path opacity=".2" fill="#fff" enable-background="new" d="M40 134v4h2v-4h-2zm4-1v5h2v-5h-2zm4-2v7h2v-7h-2zm4-1v8h2v-8h-2zm4-3v11h2v-11h-2z"/></svg>